<svg xmlns="http://www.w3.org/2000/svg" viewBox="0 0 540.74 163.66"><path d="M64.15 22.71L84.8 2.06H0V161.6h84.8l-20.65-20.66h-43.5V92.2h43.5V71.55h-43.5V22.71zM162.99 0c-10.16 0-18.97 3.65-26.2 10.85-7.22 7.2-10.89 16.02-10.89 26.24v89.57c0 10.22 3.63 19.03 10.8 26.2 7.16 7.17 16.01 10.8 26.29 10.8 10.1 0 18.89-3.62 26.12-10.76 7.22-7.14 10.88-15.96 10.88-26.23V105.9h-21.55v20.5c0 4.48-1.6 8.34-4.76 11.47-3.15 3.12-7.02 4.7-11.49 4.7-4.42 0-8.24-1.58-11.37-4.71-3.13-3.12-4.71-6.98-4.71-11.46V36.64c0-4.47 1.58-8.34 4.7-11.49 3.12-3.16 6.95-4.77 11.38-4.77 4.48 0 8.35 1.6 11.5 4.76 3.16 3.15 4.76 7.02 4.76 11.5v17.09H200V37.09c0-10.16-3.62-18.98-10.76-26.21C182.09 3.66 173.26 0 162.99 0zm119.65.09c-10.04 0-18.8 3.65-26.02 10.85-7.22 7.19-10.89 16.05-10.89 26.33v89.21c0 10.22 3.62 19.07 10.76 26.3 7.13 7.22 15.93 10.88 26.14 10.88 10.22 0 19.07-3.65 26.29-10.85 7.22-7.2 10.89-16.06 10.89-26.33V37.27c0-10.22-3.65-19.07-10.85-26.29C301.77 3.75 292.91.09 282.64.09zm15.45 126.22c0 4.41-1.57 8.23-4.66 11.35-3.1 3.13-6.94 4.71-11.42 4.71-4.42 0-8.25-1.58-11.4-4.7-3.16-3.13-4.76-6.95-4.76-11.37V36.8c0-4.48 1.61-8.32 4.77-11.42 3.15-3.08 6.99-4.65 11.4-4.65 4.47 0 8.31 1.57 11.41 4.66 3.1 3.1 4.66 6.93 4.66 11.41v89.51zM386.21 2.06h-20.66V161.6h63.24v-20.48h-42.58zm127.86 0h-30.59L456.45 161.6h21.56l6.01-37.57h29.16L519 161.6h21.74L514.07 2.06zM487.19 104l11.45-77.16L510.09 104h-22.9z" fill="#fff"/></svg>